<svg width="85" height="85" viewBox="0 0 85 85" fill="none" xmlns="http://www.w3.org/2000/svg">
<path d="M22.7919 69.2031C34.8272 75.225 49.4655 70.35 55.4873 58.3147C61.5092 46.2793 56.6342 31.641 44.5989 25.6192C32.5635 19.5974 17.9252 24.4723 11.9034 36.5077C5.88156 48.543 10.7565 63.1813 22.7919 69.2031Z" fill="white"/>
<path d="M65.1788 28.6418C70.6217 31.3651 77.2418 29.1605 79.9652 23.7175C82.6885 18.2745 80.4839 11.6544 75.0409 8.93107C69.5979 6.20772 62.9778 8.41239 60.2545 13.8554C57.5311 19.2983 59.7358 25.9184 65.1788 28.6418Z" fill="#F2BFAF" stroke="#2D2D2D" stroke-width="2" stroke-miterlimit="10"/>
<path d="M26.7437 70.7347C27.6495 69.6713 28.423 68.502 29.0473 67.2525C31.0988 63.1523 31.4375 58.4051 29.9889 54.0552C28.5402 49.7053 25.423 46.109 21.3228 44.0575C17.7813 42.2772 13.7336 41.7751 9.86446 42.636" stroke="#F8D57E" stroke-width="2" stroke-miterlimit="10"/>
<path d="M42.2108 24.0897C40.9403 25.3532 39.8842 26.8154 39.0843 28.4187C37.1212 32.3422 36.7966 36.8848 38.1819 41.0475C39.5672 45.2103 42.549 48.6525 46.4716 50.6173C49.9202 52.3497 53.8679 52.8152 57.6249 51.9324" stroke="#F8D57E" stroke-width="2" stroke-miterlimit="10"/>
<path d="M29.1802 66.3328L26.6802 70.3328L19.6802 66.3328L14.6802 62.3328L10.6802 55.8328L9.18018 49.3328L10.1802 42.8328H14.6802L20.6802 43.8328L27.1802 48.8328L29.1802 53.8328L30.6802 59.8328L29.1802 66.3328Z" fill="#F8D57E"/>
<path d="M39.8814 27.9311L42.665 24.1231L49.3563 28.6204L54.0529 32.9727L57.5708 39.7458L58.5952 46.3375L57.1262 52.7478L52.638 52.4213L46.7264 50.9886L40.6063 45.5301L37.9137 39.7458L37.9137 34.3052L39.8814 27.9311Z" fill="#F8D57E"/>
<path d="M22.7919 69.2031C34.8272 75.225 49.4655 70.35 55.4873 58.3147C61.5092 46.2793 56.6342 31.641 44.5989 25.6192C32.5635 19.5974 17.9252 24.4723 11.9034 36.5077C5.88156 48.543 10.7565 63.1813 22.7919 69.2031Z" stroke="#2D2D2D" stroke-width="2" stroke-miterlimit="10"/>
</svg>
