<svg width="117" height="35" viewBox="0 0 117 35" fill="none" xmlns="http://www.w3.org/2000/svg">
<g clip-path="url(#clip0_1237_1376)">
<path fill-rule="evenodd" clip-rule="evenodd" d="M72.6325 27.3711C65.9159 32.3459 56.1806 35.0001 47.7986 35.0001C36.0458 35.0001 25.4652 30.632 17.4606 23.3671C16.8317 22.7958 17.3952 22.0172 18.1498 22.4621C26.7884 27.5127 37.4696 30.5511 48.503 30.5511C55.9441 30.5511 64.1298 29.0041 71.6565 25.7938C72.7935 25.3085 73.7444 26.542 72.6325 27.3711Z" fill="#2D2D2D"/>
<path fill-rule="evenodd" clip-rule="evenodd" d="M75.4243 24.1609C74.569 23.0588 69.7491 23.6402 67.5857 23.898C66.9266 23.9789 66.826 23.4026 67.4197 22.988C71.2585 20.2731 77.5575 21.0568 78.292 21.9668C79.0266 22.8818 78.1009 29.2266 74.4935 32.2549C73.9401 32.72 73.4118 32.4723 73.6583 31.8555C74.4683 29.8232 76.2846 25.2681 75.4243 24.1609Z" fill="#2D2D2D"/>
<path fill-rule="evenodd" clip-rule="evenodd" d="M67.737 3.82211V1.18309C67.737 0.783694 68.0389 0.515747 68.4011 0.515747H80.159C80.5363 0.515747 80.8382 0.78875 80.8382 1.18309V3.44294C80.8332 3.82211 80.5162 4.31756 79.9527 5.10118L73.86 13.8423C76.124 13.7867 78.5138 14.1254 80.5665 15.2882C81.0294 15.5511 81.1552 15.9353 81.1904 16.3145V19.1305C81.1904 19.5147 80.7678 19.9647 80.325 19.7321C76.7076 17.8261 71.9028 17.6189 67.903 19.7523C67.4955 19.9748 67.0679 19.5299 67.0679 19.1457V16.4712C67.0679 16.0415 67.0729 15.3085 67.5005 14.6563L74.5593 4.4844H68.4162C68.0389 4.4844 67.737 4.21645 67.737 3.82211Z" fill="#2D2D2D"/>
<path fill-rule="evenodd" clip-rule="evenodd" d="M24.8455 20.2882H21.2684C20.9262 20.2629 20.6546 20.0051 20.6294 19.6765V1.22857C20.6294 0.859512 20.9363 0.566285 21.3187 0.566285H24.6543C25.0015 0.581441 25.2782 0.849398 25.3034 1.18307V3.5946H25.3688C26.2392 1.26396 27.8743 0.177002 30.078 0.177002C32.3168 0.177002 33.7155 1.26396 34.7217 3.5946C35.5871 1.26396 37.5543 0.177002 39.6624 0.177002C41.1617 0.177002 42.8018 0.798842 43.803 2.19419C44.935 3.74626 44.7036 6.00106 44.7036 7.97781L44.6986 19.6209C44.6986 19.9899 44.3917 20.2882 44.0093 20.2882H40.4372C40.08 20.2629 39.7932 19.9748 39.7932 19.6209V9.84332C39.7932 9.06476 39.8636 7.12341 39.6926 6.38529C39.4259 5.14667 38.6259 4.79783 37.5895 4.79783C36.7241 4.79783 35.8185 5.37922 35.4513 6.30946C35.084 7.23969 35.1192 8.79681 35.1192 9.84332V19.6209C35.1192 19.9899 34.8123 20.2882 34.4299 20.2882H30.8578C30.4955 20.2629 30.2138 19.9748 30.2138 19.6209L30.2088 9.84332C30.2088 7.78569 30.5459 4.75738 28.0051 4.75738C25.4342 4.75738 25.5348 7.70986 25.5348 9.84332V19.6209C25.5348 19.9899 25.2279 20.2882 24.8455 20.2882" fill="#2D2D2D"/>
<path fill-rule="evenodd" clip-rule="evenodd" d="M90.961 0.177002C96.2689 0.177002 99.1417 4.75738 99.1417 10.5814C99.1417 16.2083 95.967 20.6724 90.961 20.6724C85.7487 20.6724 82.9111 16.0921 82.9111 10.3843C82.9111 4.6411 85.7839 0.177002 90.961 0.177002ZM90.9912 3.94343C88.3549 3.94343 88.1888 7.55314 88.1888 9.80288C88.1888 12.0577 88.1536 16.8706 90.961 16.8706C93.7332 16.8706 93.864 12.9879 93.864 10.6219C93.864 9.06476 93.7986 7.2043 93.3307 5.72806C92.9282 4.44394 92.1283 3.94343 90.9912 3.94343Z" fill="#2D2D2D"/>
<path fill-rule="evenodd" clip-rule="evenodd" d="M106.024 20.2882H102.462C102.105 20.2629 101.818 19.9748 101.818 19.6209L101.813 1.1679C101.843 0.829175 102.14 0.566285 102.502 0.566285H105.818C106.13 0.581441 106.386 0.793787 106.457 1.08196V3.90298H106.522C107.523 1.38024 108.927 0.177002 111.397 0.177002C113.002 0.177002 114.567 0.758398 115.573 2.35091C116.509 3.82715 116.509 6.30946 116.509 8.09408V19.7068C116.469 20.0304 116.172 20.2882 115.82 20.2882H112.233C111.906 20.2629 111.634 20.0203 111.599 19.7068V9.6866C111.599 7.66941 111.83 4.71694 109.36 4.71694C108.489 4.71694 107.689 5.30339 107.292 6.19317C106.789 7.32058 106.723 8.44292 106.723 9.6866V19.6209C106.718 19.9899 106.406 20.2882 106.024 20.2882" fill="#2D2D2D"/>
<path fill-rule="evenodd" clip-rule="evenodd" d="M58.3641 11.4762C58.3641 12.8766 58.3993 14.0445 57.6949 15.2882C57.1264 16.2993 56.2208 16.9211 55.2196 16.9211C53.8461 16.9211 53.0411 15.8696 53.0411 14.3175C53.0411 11.2538 55.773 10.6977 58.3641 10.6977V11.4762ZM61.9714 20.2376C61.735 20.4499 61.3928 20.4651 61.1262 20.3235C59.9388 19.3326 59.7225 18.8726 59.0735 17.9272C57.1113 19.9393 55.7177 20.5409 53.1769 20.5409C50.1632 20.5409 47.8237 18.6754 47.8237 14.9393C47.8237 12.0222 49.3935 10.0354 51.6374 9.06471C53.5794 8.20525 56.2912 8.05359 58.3641 7.81597V7.35086C58.3641 6.49646 58.4295 5.48533 57.9264 4.74722C57.4937 4.08493 56.6585 3.81193 55.9189 3.81193C54.5555 3.81193 53.3429 4.51466 53.0461 5.97067C52.9857 6.29423 52.7493 6.61274 52.4222 6.6279L48.9557 6.25379C48.6639 6.18807 48.3369 5.95045 48.4224 5.5005C49.2174 1.27402 53.021 0 56.422 0C58.1628 0 60.4369 0.465117 61.8104 1.78969C63.5512 3.42265 63.3852 5.60161 63.3852 7.9727V13.5743C63.3852 15.2578 64.0795 15.9959 64.7336 16.906C64.96 17.2295 65.0103 17.6188 64.7185 17.8615C63.9889 18.4732 62.6909 19.6107 61.9765 20.2477L61.9714 20.2376" fill="#2D2D2D"/>
<path fill-rule="evenodd" clip-rule="evenodd" d="M11.4681 11.4765C11.4681 12.8769 11.5033 14.0447 10.7989 15.2884C10.2304 16.2995 9.32981 16.9214 8.32357 16.9214C6.95006 16.9214 6.1501 15.8698 6.1501 14.3177C6.1501 11.254 8.88204 10.6979 11.4681 10.6979V11.4765ZM15.0754 20.2378C14.839 20.4502 14.4968 20.4653 14.2302 20.3238C13.0428 19.3329 12.8315 18.8728 12.1775 17.9274C10.2153 19.9396 8.82669 20.5412 6.28091 20.5412C3.27226 20.5412 0.927734 18.6757 0.927734 14.9396C0.927734 12.0225 2.50249 10.0356 4.74137 9.06495C6.68341 8.20549 9.39522 8.05383 11.4681 7.81622V7.3511C11.4681 6.4967 11.5335 5.48558 11.0354 4.74746C10.5977 4.08518 9.76249 3.81217 9.02794 3.81217C7.66449 3.81217 6.44694 4.5149 6.1501 5.97092C6.08973 6.29448 5.85326 6.61298 5.53127 6.62815L2.05975 6.25403C1.76794 6.18831 1.44595 5.95069 1.52644 5.50075C2.3264 1.27426 6.12495 0.000244141 9.52603 0.000244141C11.2668 0.000244141 13.5409 0.465361 14.9144 1.78993C16.6552 3.42289 16.4892 5.60186 16.4892 7.97294V13.5746C16.4892 15.2581 17.1835 15.9962 17.8375 16.9062C18.069 17.2298 18.1193 17.619 17.8275 17.8617C17.098 18.4734 15.7999 19.6109 15.0855 20.248L15.0754 20.2378" fill="#2D2D2D"/>
</g>
<defs>
<clipPath id="clip0_1237_1376">
<rect width="115.581" height="35" fill="white" transform="translate(0.927734)"/>
</clipPath>
</defs>
</svg>
