<svg width="30" height="35" viewBox="0 0 30 35" fill="none" xmlns="http://www.w3.org/2000/svg">
<g clip-path="url(#clip0_1237_1396)">
<path d="M29.2178 27.2761C28.6885 28.4989 28.0619 29.6245 27.336 30.6593C26.3466 32.0701 25.5364 33.0466 24.912 33.5889C23.9442 34.479 22.9072 34.9348 21.7967 34.9607C20.9995 34.9607 20.0381 34.7339 18.919 34.2737C17.7963 33.8157 16.7644 33.5889 15.821 33.5889C14.8315 33.5889 13.7703 33.8157 12.6352 34.2737C11.4984 34.7339 10.5826 34.9737 9.8824 34.9975C8.81752 35.0428 7.75611 34.574 6.69664 33.5889C6.02042 32.9991 5.17462 31.988 4.16138 30.5556C3.07425 29.026 2.18048 27.2523 1.48029 25.2302C0.730406 23.046 0.354492 20.9309 0.354492 18.8833C0.354492 16.5377 0.861328 14.5147 1.87651 12.8194C2.67436 11.4577 3.73577 10.3835 5.06422 9.59495C6.39266 8.80639 7.82805 8.40455 9.37384 8.37885C10.2196 8.37885 11.3288 8.64047 12.7072 9.15466C14.0816 9.67056 14.9642 9.93219 15.3511 9.93219C15.6404 9.93219 16.6208 9.62628 18.2828 9.01639C19.8545 8.45079 21.181 8.2166 22.2677 8.30885C25.2123 8.54649 27.4246 9.70729 28.8959 11.7986C26.2623 13.3943 24.9596 15.6292 24.9855 18.4963C25.0093 20.7296 25.8194 22.588 27.4117 24.0635C28.1332 24.7484 28.9391 25.2777 29.8356 25.6536C29.6412 26.2175 29.436 26.7576 29.2178 27.2761ZM22.4643 0.700687C22.4643 2.45109 21.8248 4.08543 20.5501 5.59816C19.0119 7.3965 17.1514 8.43566 15.1337 8.27169C15.108 8.06169 15.0931 7.84068 15.0931 7.60844C15.0931 5.92806 15.8246 4.12972 17.1237 2.65933C17.7723 1.91485 18.5971 1.29582 19.5974 0.80201C20.5955 0.315568 21.5396 0.0465556 22.4276 0.000488281C22.4535 0.234489 22.4643 0.468505 22.4643 0.700665V0.700687Z" fill="#2D2D2D"/>
</g>
<defs>
<clipPath id="clip0_1237_1396">
<rect width="29.4812" height="35" fill="white" transform="translate(0.354492)"/>
</clipPath>
</defs>
</svg>
