<svg width="61" height="40" viewBox="0 0 61 40" fill="none" xmlns="http://www.w3.org/2000/svg">
<g clip-path="url(#clip0_1237_1386)">
<path d="M45.6215 20.0034C45.5225 19.8986 45.4054 19.8124 45.2757 19.7493C44.3473 19.1943 43.4362 18.6117 42.4836 18.1051C41.8218 17.7628 41.1338 17.4738 40.4262 17.2407C39.5617 16.9433 39.062 16.2811 39.1779 15.3769C39.204 15.244 39.1958 15.1066 39.154 14.9777C39.1123 14.8488 39.0384 14.7327 38.9393 14.6404C38.616 14.3188 38.635 14.2566 39.1001 13.9903C39.013 13.8052 38.9413 13.6132 38.8857 13.4163C38.8608 13.2708 38.8764 13.1213 38.9306 12.9841C39.0759 12.6141 39.2661 12.2631 39.4044 11.8914C39.5098 11.6044 39.4044 11.4315 39.0586 11.4263C38.0903 11.395 37.1411 11.1481 36.2802 10.7036C35.8175 10.5047 35.3656 10.2813 34.9265 10.0346C34.2004 9.57467 33.4759 9.6421 32.7412 9.94639C32.5907 10.0086 32.4922 10.1936 32.3694 10.3233L32.4351 10.446L31.2249 10.37C30.9535 10.3527 30.6475 10.2472 30.4175 10.3371C30.006 10.4962 29.6291 10.4339 29.2349 10.3596L27.5268 10.0328C27.6668 10.4495 27.4369 10.4236 27.2242 10.3786C26.8784 10.3198 26.5188 10.2299 26.1627 10.1815C25.9068 10.1452 25.644 10.1521 25.2792 10.1366L25.6492 10.6241C24.9793 10.8981 24.2428 10.9657 23.5343 10.8181C22.8258 10.6706 22.1775 10.3146 21.6727 9.79597C20.6354 8.67218 20.3501 7.26658 20.2256 5.81948C20.0683 4.0024 20.5212 2.30807 21.3494 0.700188C21.4357 0.505653 21.5096 0.305853 21.5707 0.101986L21.4324 0.00170898C21.2137 0.120058 21.005 0.255935 20.8082 0.408003C19.8652 1.23073 19.238 2.35612 19.0344 3.59092C18.9203 4.28249 18.9479 4.99652 18.8822 5.69673C18.8701 5.83504 18.7232 5.96298 18.6385 6.09438C18.5313 5.97854 18.348 5.86962 18.3342 5.7486C18.2771 5.25067 18.2685 4.74583 18.2529 4.24445C18.2425 3.95053 18.2529 3.65835 18.2529 3.25724C18.0461 3.39213 17.871 3.57011 17.7394 3.77899C17.6078 3.98787 17.5229 4.22273 17.4905 4.46748C17.2017 5.91285 17.4127 7.27177 18.2633 8.50621C18.3675 8.6826 18.4599 8.86568 18.5399 9.05427L18.367 9.158C18.1279 8.90347 17.9083 8.63126 17.71 8.34369C17.4524 7.91319 17.2657 7.43947 17.0185 6.9986C16.9118 6.84633 16.7876 6.70707 16.6485 6.58366C16.5811 6.77557 16.5085 6.96575 16.4497 7.15939C16.4415 7.21723 16.4457 7.27613 16.4618 7.33228C16.6229 8.53215 17.1782 9.64447 18.0403 10.4945C19.0551 11.5093 20.2688 12.2113 21.5724 12.7818C21.7125 12.844 21.9303 12.9841 21.9286 13.0844C21.947 13.7005 21.9024 14.3169 21.7955 14.9239C21.5482 16.02 20.4607 16.3797 19.5375 15.7279C18.967 15.3233 18.7733 15.3129 18.2789 15.8402C17.7837 16.3664 17.1514 16.7437 16.4531 16.9294C15.8169 17.1023 15.1858 17.3133 14.5513 17.5242C14.2236 17.6295 13.9045 17.7601 13.597 17.9149C13.4777 17.9772 13.412 18.1449 13.3221 18.2607L13.6454 18.4872L13.1267 18.8451L13.4863 19.1338C13.4492 19.1837 13.4179 19.2376 13.393 19.2946C13.3549 19.4156 13.3273 19.5401 13.2944 19.6628C13.4293 19.6871 13.578 19.7597 13.6938 19.7251C13.9669 19.634 14.2322 19.5213 14.4874 19.388C15.5437 18.8693 16.6139 18.3506 17.6478 17.7922C18.6817 17.2337 19.6257 17.3271 20.6302 17.8907C21.1955 18.2071 21.8577 18.3679 22.4905 18.5442C23.0247 18.6929 23.5157 18.5149 23.9428 18.1708C24.3231 17.8631 24.6966 17.5467 25.0786 17.2389C25.3695 16.9876 25.7191 16.8137 26.0951 16.7333C26.471 16.6529 26.8612 16.6686 27.2294 16.779C27.6308 16.9076 28.024 17.0606 28.4068 17.2372C29.1641 17.5536 29.8988 17.9288 30.6734 18.195C31.8624 18.6278 33.1594 18.6654 34.3715 18.3022C35.3466 17.9962 36.1471 18.0757 36.792 18.9194C37.1049 19.324 37.4836 19.4381 38.0126 19.2808C39.2004 18.9211 40.3726 18.9488 41.4808 19.5937C41.9787 19.8841 42.4766 20.1763 42.9919 20.4305C43.4727 20.6615 43.9663 20.8653 44.4701 21.0408C44.6358 21.0795 44.8093 21.0672 44.9679 21.0055C45.1265 20.9438 45.2628 20.8355 45.3587 20.695L45.8947 20.4858C45.8172 20.3177 45.7258 20.1564 45.6215 20.0034Z" fill="#2D2D2D"/>
<path d="M57.4628 25.8144C57.1595 25.5996 56.8315 25.422 56.486 25.2853C56.0001 25.1124 55.4849 25.0312 54.9905 24.8842C53.7778 24.5267 52.4877 24.5267 51.275 24.8842C49.183 25.498 47.4714 26.7013 46.5292 28.776C46.4185 29.0197 46.4306 29.3275 46.2958 29.5523C45.7771 30.434 45.8653 31.4108 45.7771 32.7749C45.8514 33.2279 45.9915 34.0716 46.1333 34.9153C46.3684 36.3071 47.2121 37.3202 48.2927 38.1086C49.4009 38.916 50.5541 39.6179 52.0254 39.7355C53.0817 39.822 54.0914 40.0069 55.1754 39.7891C56.3511 39.554 57.2813 38.9852 58.1267 38.2123C58.4431 37.9236 58.6765 37.545 58.9825 37.2424C60.1184 36.1221 60.6423 34.72 60.8532 33.183C61.0641 31.646 60.7806 30.23 60.2031 28.814C59.6551 27.4482 58.6281 26.5733 57.4628 25.8144ZM55.9759 35.3233C54.9908 36.0769 53.7488 36.4128 52.5181 36.2587C50.9275 36.0633 50.1184 35.1366 49.579 33.6878C49.1087 32.4309 49.3525 31.3244 49.7899 30.1816C49.8746 29.9672 50.0064 29.7746 50.1754 29.618C50.8549 28.9904 51.5015 28.4233 52.551 28.3057C53.3929 28.2106 54.1623 28.368 54.9127 28.5339C56.0226 28.7794 56.6312 29.7096 56.9752 30.7331C57.1827 31.3486 57.1948 32.0298 57.2916 32.6591C57.1879 33.7483 56.773 34.739 55.9759 35.3303V35.3233Z" fill="#2D2D2D"/>
<path d="M32.4785 6.03217C32.3955 6.13418 32.3696 6.42809 32.4387 6.48169C32.7394 6.69333 33.053 6.88618 33.3775 7.05914C33.4726 7.2061 33.5867 7.41357 33.7233 7.42394C34.2108 7.46371 34.7036 7.4395 35.2309 7.4395L34.4097 8.41979L34.7399 8.56329L34.2039 8.98342C34.3336 9.05949 34.3993 9.1079 34.4719 9.14075C35.0615 9.407 35.6614 9.65078 36.2388 9.9395C37.1461 10.381 38.1188 10.6729 39.1192 10.804C39.5203 10.8627 39.79 10.7555 39.8989 10.332C39.9595 10.1096 40.043 9.89404 40.1479 9.68881C40.3831 9.18216 40.7164 8.72721 41.1286 8.35031C41.5408 7.9734 42.0237 7.68204 42.5494 7.4931C43.7717 7.04531 44.3492 6.2016 44.2229 4.96025C44.1849 4.58162 43.993 4.40527 43.6351 4.4312C43.2329 4.45321 42.8326 4.5023 42.437 4.57816C41.761 4.71647 41.2095 4.59718 40.7271 4.05949C40.1859 3.44572 39.5169 3.03943 38.6351 3.1691C38.1025 3.23685 37.5627 3.11901 37.1068 2.83542C36.7835 2.65216 36.4359 2.44123 36.0832 2.40319C34.9424 2.24558 33.7846 2.53011 32.8467 3.19849C32.7076 3.3236 32.5797 3.46072 32.4646 3.60824C32.7257 3.69123 32.9003 3.74137 33.068 3.80534C33.1545 3.83819 33.3014 3.90216 33.2997 3.94538C33.2841 4.32055 33.585 4.29116 33.8011 4.35167C33.974 4.40181 34.1469 4.4312 34.3111 4.47097L34.3284 4.59026C33.9325 4.87034 33.5314 5.14178 33.1441 5.43397C32.9003 5.60754 32.677 5.80822 32.4785 6.03217ZM43.853 4.94642C43.853 5.04151 43.9117 5.24033 43.8391 5.3164C43.7032 5.46807 43.5208 5.57025 43.3205 5.60686C43.1722 5.63405 43.0191 5.60713 42.889 5.53098C42.7589 5.45483 42.6605 5.33452 42.6116 5.19192L43.853 4.94642Z" fill="#2D2D2D"/>
<path d="M16.7609 21.3676C16.9611 21.3396 17.1572 21.288 17.3452 21.2137C17.9019 20.9129 18.4517 20.5999 18.986 20.2628C19.7121 19.8046 20.478 19.5021 21.3476 19.5712C21.7641 19.6139 22.1779 19.6791 22.5873 19.7666C23.7508 19.9983 24.738 19.7355 25.561 18.8364C26.0137 18.3764 26.4947 17.945 27.0012 17.5449C27.2363 17.3461 27.1844 17.1663 26.9476 17.1023C26.6806 17.0133 26.3935 17.0037 26.1212 17.0747C25.8006 17.1993 25.5114 17.3929 25.274 17.6418C24.1381 18.8053 22.8535 19.343 21.2145 18.8261C20.6777 18.6597 20.1238 18.5547 19.5634 18.5131C19.1947 18.4702 18.8214 18.53 18.4846 18.686C17.6582 19.1338 16.8421 19.6335 16.6658 20.7088L16.9476 20.8178L16.7038 21.2362L16.7609 21.3676Z" fill="#2D2D2D"/>
<path d="M41.1471 15.2092C40.746 15.1833 40.3484 15.1072 39.949 15.0761C39.6741 15.0554 39.5583 15.2058 39.5911 15.4807C39.6155 15.7933 39.7491 16.0874 39.9685 16.3115C40.1878 16.5356 40.479 16.6754 40.791 16.7065C41.2042 16.7532 41.6226 16.7445 42.0375 16.7825C43.0507 16.8742 44.0655 16.9658 45.077 17.0868C45.3916 17.1249 45.689 17.2373 45.6164 16.7497L46.2786 16.8638L46.1264 16.4039L46.799 16.3399C46.7567 16.1595 46.6583 15.9972 46.5178 15.8763C46.3774 15.7555 46.2022 15.6823 46.0175 15.6674C45.0268 15.5135 44.0292 15.4012 43.0317 15.3061C42.4058 15.2455 41.7782 15.2525 41.1471 15.2092Z" fill="#2D2D2D"/>
<path d="M18.6332 34.1165C19.7501 33.9972 20.8687 33.8987 21.9873 33.8018C23.8528 33.6393 25.7183 33.4906 27.582 33.3247C28.1266 33.2763 28.2528 33.1518 28.2978 32.5968C28.4121 31.317 28.2585 30.0275 27.8465 28.8105C27.314 27.2735 26.2456 26.0805 24.8625 25.2489C23.4396 24.3931 21.8524 24.139 20.1944 24.3672C18.9447 24.5246 17.7721 25.0576 16.8317 25.8955C16.3044 26.3658 15.8739 26.9467 15.4244 27.4965C14.6325 28.4647 14.2971 29.6265 14.1415 30.8333C13.9702 32.1341 14.053 33.4558 14.3853 34.7251C14.8279 36.435 15.7373 37.8371 17.1688 38.7967C17.4185 38.9641 17.679 39.1149 17.9486 39.2479C18.0938 39.3205 18.2407 39.3862 18.3894 39.4467C19.4496 39.8743 20.5925 40.0575 21.7331 39.9827C21.83 39.9827 21.9285 39.9931 22.0236 39.9827C22.056 39.9809 22.0883 39.9775 22.1204 39.9723C23.0817 39.8202 24.0896 39.7994 24.9939 39.4727C26.4997 38.9367 27.4333 37.704 28.1958 36.3433C28.3306 36.1065 28.2978 35.9405 28.0661 35.8056C27.6183 35.5463 27.1844 35.2576 26.7193 35.0328C25.701 34.5401 25.682 34.5418 24.9109 35.3786C24.4023 35.9181 23.7171 36.2573 22.9797 36.3347C22.5186 36.3981 22.061 36.4488 21.6069 36.4868C20.2238 36.6027 19.0827 36.1653 18.2442 35.0346C17.8448 34.4865 17.9641 34.1805 18.6332 34.1165ZM17.7843 30.3215C18.0488 29.222 18.8217 28.6272 19.814 28.2209C20.7693 27.8246 21.8393 27.8048 22.8085 28.1656C23.8787 28.5373 24.6239 29.2358 24.8538 30.4944C24.1432 30.5377 23.488 30.5826 22.831 30.6189C21.2957 30.7019 19.7599 30.782 18.2235 30.8592C17.7843 30.8834 17.6806 30.7555 17.7843 30.3215Z" fill="#2D2D2D"/>
<path d="M12.1464 34.267C11.9096 33.5149 11.5379 32.8839 10.8826 32.4153C10.7097 32.2926 10.5074 32.1474 10.7495 31.8967C11.1324 31.5082 11.4313 31.0451 11.6276 30.5362C11.8239 30.0273 11.9134 29.4835 11.8906 28.9385C11.8906 28.1536 11.7436 27.4897 11.2249 26.9157C10.0147 25.5758 8.61083 24.6525 6.7073 24.6923C5.66996 24.7148 4.61533 24.637 3.56934 24.6162C2.8674 24.6024 2.16373 24.6162 1.4618 24.6041C1.17653 24.6041 1.06933 24.7009 1.06588 25.0121C1.05204 26.8949 1.01055 28.7794 0.97943 30.6639C0.953496 32.2442 0.932753 33.8227 0.901632 35.4029C0.901632 35.6899 0.82556 35.9752 0.835933 36.2673C0.863596 37.0696 0.91719 37.87 0.958684 38.6723H0.913736C0.913736 38.9316 0.931025 39.1909 0.913736 39.4503C0.882616 39.8047 1.00018 39.9551 1.37362 39.905C1.6429 39.8679 1.9155 39.8616 2.18621 39.8859C4.12604 40.0588 6.06415 39.9516 7.99534 39.7909C10.1046 39.618 11.5085 38.4976 12.1828 36.48C12.4104 35.7578 12.3977 34.9813 12.1464 34.267ZM4.52888 28.6757C4.52888 28.3299 4.66546 28.157 5.05965 28.2106C5.39214 28.2369 5.72607 28.2398 6.05896 28.2193C6.43759 28.2556 6.95281 28.2936 7.46457 28.3593C7.79479 28.4008 8.0645 28.6031 8.06968 28.9333C8.07472 29.3557 8.01644 29.7765 7.89679 30.1816C7.84777 30.2737 7.77779 30.3529 7.6925 30.413C7.60721 30.4731 7.509 30.5122 7.40578 30.5274C6.56553 30.6207 5.71837 30.6622 4.87293 30.7193C4.82721 30.7287 4.77989 30.7269 4.735 30.7141C4.6901 30.7013 4.64895 30.6779 4.61502 30.6459C4.5811 30.6138 4.5554 30.574 4.5401 30.5299C4.5248 30.4858 4.52036 30.4387 4.52715 30.3925C4.52715 29.8237 4.52369 29.2497 4.52888 28.6757ZM7.28303 36.3538C6.79202 36.4402 6.28545 36.4454 5.7858 36.4869V36.4143C5.45385 36.4143 5.12362 36.4143 4.7934 36.4143C4.56691 36.4143 4.49603 36.3123 4.50468 36.0962C4.52715 35.5066 4.55136 34.9171 4.54444 34.3292C4.53526 34.276 4.53795 34.2214 4.55233 34.1694C4.5667 34.1173 4.59239 34.0691 4.62758 34.0281C4.66277 33.9871 4.70657 33.9545 4.75586 33.9324C4.80515 33.9103 4.8587 33.8994 4.9127 33.9005C5.79962 33.8227 6.68828 33.7379 7.57694 33.6999C7.97978 33.6826 8.36187 34.2359 8.41892 34.8133C8.50018 35.6588 8.11809 36.2086 7.28303 36.3538Z" fill="#2D2D2D"/>
<path d="M44.0466 35.4322C43.393 35.1141 42.6963 34.8789 42.0134 34.6213C41.6676 34.4865 41.4013 34.6213 41.1385 34.8928C40.7593 35.3018 40.3361 35.6677 39.8764 35.9837C39.0656 36.5127 38.1302 36.5369 37.2087 36.4107C36.5172 36.3174 35.7876 36.2603 35.2343 35.7659C33.8668 34.5435 33.5296 32.9996 33.9307 31.2707C34.0135 30.9063 34.1511 30.5565 34.3388 30.2334C34.5601 29.8564 34.8004 29.4329 35.1462 29.196C36.6382 28.1777 38.7959 27.9668 40.3467 29.0525C40.5181 29.184 40.7044 29.2948 40.9017 29.3827C40.97 29.4129 41.0439 29.4285 41.1187 29.4285C41.1934 29.4285 41.2673 29.4129 41.3356 29.3827C42.0497 28.8502 42.7533 28.3022 43.4363 27.7299C43.4825 27.6629 43.511 27.5851 43.5188 27.5041C43.5267 27.423 43.5137 27.3412 43.4812 27.2665C43.1078 26.8343 42.762 26.307 42.2796 26.0563C40.8343 25.2991 39.3647 24.5245 37.6565 24.7026C36.002 24.6801 34.5843 25.3042 33.2323 26.1445C31.9496 26.9252 31.0284 28.1822 30.67 29.6403C30.4913 30.2775 30.3567 30.9262 30.2672 31.5819C30.1392 32.6192 30.1133 33.6479 30.4677 34.6542C30.7485 35.4707 31.145 36.2428 31.6451 36.9467C32.1275 37.6175 32.6271 38.2468 33.3222 38.7067C35.1617 39.917 37.1672 40.2091 39.3145 39.8547C41.5068 39.4916 43.1925 38.4111 44.3284 36.4937C44.6551 35.9508 44.6309 35.7174 44.0466 35.4322Z" fill="#2D2D2D"/>
</g>
<defs>
<clipPath id="clip0_1237_1386">
<rect width="60.0916" height="40" fill="white" transform="translate(0.835938)"/>
</clipPath>
</defs>
</svg>
