<svg width="85" height="85" viewBox="0 0 85 85" fill="none" xmlns="http://www.w3.org/2000/svg">
<path d="M36 45L39 48.5L33.5 54L36 56L32 58L29.5 56H25L21.5 59.5V63.5L23.5 67L21.5 70L17 63.5L18 58L21.5 54L36 45Z" fill="#009379"/>
<path d="M37.5 59L36 55.5L32.5 57.5V60.5V64.5L30.5 66.5H27L24 66L21.5 69.5L25 71H30.5L34.5 68.5L37 64.5L37.5 59Z" fill="#009379"/>
<path d="M24.0227 52.207L42.5673 40.7039V35.0849L72.4662 20.4588L33.7217 53.3644" stroke="#2D2D2D" stroke-width="2" stroke-linecap="round" stroke-linejoin="round"/>
<path d="M24.0551 52.2781C22.175 53.0411 20.5653 54.3475 19.4319 56.0304C18.2985 57.7133 17.6928 59.696 17.6925 61.725C17.6925 64.4294 18.7668 67.023 20.6791 68.9353C22.5914 70.8476 25.185 71.9219 27.8894 71.9219C30.5938 71.9219 33.1875 70.8476 35.0997 68.9353C37.012 67.023 38.0864 64.4294 38.0864 61.725C38.0859 60.0836 37.6896 58.4666 36.9309 57.0111C36.1722 55.5557 35.0736 54.3047 33.7283 53.3644" stroke="#2D2D2D" stroke-width="2" stroke-linecap="round" stroke-linejoin="round"/>
<path d="M33.4387 36.4475L34.4387 31.2186L28.7703 29.895L29.9157 26.9054L25.4534 27.2028L24.3081 30.1924L20.4259 32.4681L15.6364 31.2186L13.6136 27.7677L13.5691 23.7369L10.3266 22.1601L10.3265 29.4476L13.3755 34.2826L18.4178 35.9635L33.4387 36.4475Z" fill="#009379"/>
<path d="M29.6927 23.5587L30.1686 27.3367L26.1377 27.3813L25.4388 23.4476L21.9388 20.4476L17.9388 19.9476L15.4388 21.9476L14.5062 24.3467L10.5795 22.5915L12.8404 19.5275L16.4388 15.9476L21.9388 15.4476L26.1377 17.9476L29.6927 23.5587Z" fill="#009379"/>
<path d="M27.8183 67.5121C31.0287 67.5121 33.6313 64.9095 33.6313 61.6991C33.6313 58.4887 31.0287 55.8861 27.8183 55.8861C24.6079 55.8861 22.0054 58.4887 22.0054 61.6991C22.0054 64.9095 24.6079 67.5121 27.8183 67.5121Z" stroke="#2D2D2D" stroke-width="2" stroke-linecap="round" stroke-linejoin="round"/>
<path d="M44.9145 33.934L29.0081 30.5005" stroke="#2D2D2D" stroke-width="2" stroke-linecap="round" stroke-linejoin="round"/>
<path d="M46.6344 42.4043L78.6994 41.2275L54.232 35.9447" stroke="#2D2D2D" stroke-width="2" stroke-linecap="round" stroke-linejoin="round"/>
<path d="M20.7445 36.0224L42.5221 37.4061" stroke="#2D2D2D" stroke-width="2" stroke-linecap="round" stroke-linejoin="round"/>
<path d="M21.0031 36.029C18.9843 36.2447 16.947 35.8529 15.1523 34.9037C13.3575 33.9545 11.887 32.4911 10.929 30.701C10.2968 29.5208 9.90328 28.2276 9.77103 26.8952C9.63878 25.5629 9.77037 24.2176 10.1583 22.9362C10.5462 21.6547 11.1828 20.4623 12.0318 19.427C12.8808 18.3917 13.9254 17.5338 15.1061 16.9025C16.2864 16.2698 17.5797 15.8758 18.9123 15.743C20.2448 15.6102 21.5905 15.7412 22.8724 16.1285C24.1543 16.5158 25.3474 17.1518 26.3835 18.0002C27.4196 18.8485 28.2785 19.8927 28.9111 21.0731C29.6848 22.5205 30.0981 24.133 30.1161 25.7741C30.1341 27.4153 29.7563 29.0365 29.0145 30.5005" stroke="#2D2D2D" stroke-width="2" stroke-linecap="round" stroke-linejoin="round"/>
<path d="M19.8716 31.7613C23.082 31.7613 25.6845 29.1588 25.6845 25.9484C25.6845 22.738 23.082 20.1354 19.8716 20.1354C16.6611 20.1354 14.0586 22.738 14.0586 25.9484C14.0586 29.1588 16.6611 31.7613 19.8716 31.7613Z" stroke="#2D2D2D" stroke-width="2" stroke-linecap="round" stroke-linejoin="round"/>
<path d="M48.1886 36.7154C48.1885 36.7149 48.1885 36.7145 48.1885 36.7143C48.1885 36.7141 48.1885 36.7137 48.1886 36.7132C48.1889 36.7121 48.1892 36.7109 48.1897 36.7098C48.1905 36.7078 48.1913 36.707 48.1916 36.7067C48.1918 36.7065 48.1927 36.7057 48.1947 36.7049C48.1957 36.7044 48.1969 36.704 48.198 36.7038C48.1985 36.7037 48.1989 36.7037 48.1991 36.7036C48.1994 36.7037 48.1997 36.7037 48.2002 36.7038C48.2014 36.704 48.2025 36.7044 48.2036 36.7049C48.2056 36.7057 48.2065 36.7065 48.2067 36.7067C48.2069 36.707 48.2077 36.7078 48.2086 36.7098C48.209 36.7109 48.2094 36.7121 48.2096 36.7132C48.2097 36.7137 48.2098 36.7141 48.2098 36.7143C48.2098 36.7145 48.2097 36.7149 48.2096 36.7154C48.2094 36.7165 48.209 36.7177 48.2086 36.7188C48.2077 36.7208 48.2069 36.7216 48.2067 36.7219C48.2065 36.7221 48.2056 36.7229 48.2036 36.7238C48.2025 36.7242 48.2014 36.7246 48.2002 36.7248C48.1997 36.7249 48.1994 36.725 48.1991 36.725C48.1989 36.725 48.1985 36.7249 48.198 36.7248C48.1969 36.7246 48.1957 36.7242 48.1947 36.7238C48.1927 36.7229 48.1918 36.7221 48.1916 36.7219C48.1913 36.7216 48.1905 36.7208 48.1897 36.7188C48.1892 36.7177 48.1889 36.7165 48.1886 36.7154Z" fill="#2D2D2D" stroke="#2D2D2D" stroke-width="2"/>
</svg>
