<svg width="85" height="85" viewBox="0 0 85 85" fill="none" xmlns="http://www.w3.org/2000/svg">
<circle cx="42" cy="43" r="34" fill="#FF6250" stroke="#2D2D2D" stroke-width="2"/>
<path d="M56.5 38.97H26.53C26.4527 38.97 26.39 39.0327 26.39 39.11V46.06C26.39 46.1373 26.4527 46.2 26.53 46.2H56.5C56.5773 46.2 56.64 46.1373 56.64 46.06V39.11C56.64 39.0327 56.5773 38.97 56.5 38.97Z" fill="white"/>
<path d="M43.3999 38.8401C43.7585 38.8856 44.1214 38.8856 44.48 38.8401C44.98 38.8401 45.48 38.8401 46.01 38.7801L48.96 38.7101H49.46C50.0201 38.7955 50.5898 38.7955 51.1499 38.7101C51.2463 38.7002 51.3435 38.7002 51.4399 38.7101C52.6599 38.8501 53.8801 38.7101 55.1001 38.7101H56.25C56.46 38.7101 56.6501 38.7101 56.8101 38.8401C56.8848 39.0173 56.9221 39.2078 56.9199 39.4001V39.4501C56.9199 39.6701 56.9199 39.9302 56.9199 40.1002C56.9246 40.2663 56.9516 40.4311 57 40.5901C57.017 40.7129 57.017 40.8374 57 40.9601C57 41.8501 57 42.5901 57 43.3001V44.3001C57 44.6701 57 45.0602 57 45.4702C57.0342 45.752 57.0103 46.0378 56.9299 46.3101C56.914 46.3728 56.8814 46.43 56.8357 46.4758C56.7899 46.5215 56.7326 46.5542 56.6699 46.5701C56.5431 46.6103 56.4125 46.6371 56.28 46.6501H54.77H51.51C50.66 46.6501 49.81 46.6501 48.96 46.6501C47.63 46.6501 46.29 46.6502 44.96 46.7202C43.63 46.7902 42.49 46.8201 41.25 46.8201H38.9199H37.3899C36.1599 46.8201 34.92 46.8901 33.71 46.8201C32.24 46.8201 30.8101 46.8201 29.3801 46.9001C29.1101 46.9001 28.8401 46.9002 28.6001 46.9702C27.9721 47.1178 27.3125 47.0472 26.73 46.7701C26.46 46.5901 26.28 46.4001 26.53 46.1901C26.78 45.9801 27.03 45.8601 27.95 45.8801C28.87 45.9001 29.5 45.8201 30.29 45.8801C30.5293 45.8693 30.767 45.8358 31 45.7801C32 45.7801 33 45.7801 34 45.7001C34.33 45.7001 34.7201 45.7001 35.0801 45.7001C35.4401 45.7001 36.08 45.7001 36.5 45.7001C37.68 45.7001 38.87 45.7001 40.04 45.6301C40.38 45.6301 40.7799 45.6301 41.1499 45.6301C42.2291 45.6901 43.3107 45.6901 44.3899 45.6301C45.3899 45.7601 46.3899 45.6301 47.3899 45.7101C47.7399 45.7101 48.11 45.7101 48.47 45.7101H48.6899L50.46 45.6301H52.6699C53.1899 45.6301 53.67 45.6301 54.23 45.6301C54.4731 45.6442 54.7168 45.6442 54.96 45.6301C55.1649 45.6119 55.3687 45.5819 55.5701 45.5401C55.6824 45.6032 55.8123 45.6279 55.9399 45.6102C55.9999 45.5102 55.9399 45.36 55.9399 45.24V42.6401V39.74C55.9553 39.6541 55.9553 39.5661 55.9399 39.4802C55.8799 39.4202 55.7699 39.4802 55.6899 39.4802H55.4199H54.8999C54.6526 39.5264 54.4015 39.5498 54.1499 39.5501C53.1507 39.4951 52.1491 39.4951 51.1499 39.5501H50.5601C50.4858 39.5231 50.406 39.5144 50.3276 39.5248C50.2493 39.5353 50.1747 39.5646 50.1101 39.6102H49.54C49.2793 39.573 49.0136 39.6184 48.78 39.74C48.42 39.74 48.2001 39.59 47.8401 39.74C47.2101 39.74 46.56 39.74 45.95 39.74C44.9857 39.7091 44.0205 39.7393 43.0601 39.8301C42.7906 39.8955 42.5094 39.8955 42.24 39.8301C42.17 39.8301 41.7799 39.8301 41.6699 39.8301C41.4943 39.8035 41.3156 39.8035 41.1399 39.8301C40.2099 39.8301 39.2701 39.8301 38.3401 39.8301C38.0072 39.8047 37.6729 39.8047 37.3401 39.8301C36.735 39.94 36.1151 39.94 35.51 39.8301C35.1215 39.7813 34.7286 39.7813 34.3401 39.8301C33.7163 39.9554 33.0737 39.9554 32.45 39.8301C32.2141 39.8028 31.9759 39.8028 31.74 39.8301H31.6399H31.75L28.4299 39.8901C28.0399 39.8901 27.61 39.8901 27.26 39.8901C27.26 39.8901 27.1899 39.8901 27.1699 39.9401V40.3301C27.1699 41.3301 27.31 42.2402 27.27 43.2302C27.235 43.863 27.235 44.4972 27.27 45.1301C27.2986 45.3459 27.2746 45.5655 27.2 45.7701C27.176 45.8458 27.1461 45.9193 27.1101 45.99H26.71V45.8801C26.62 45.5901 26.5299 45.3101 26.4299 45.0101C26.3299 44.7101 26.3701 44.0902 26.3401 43.6102C26.2953 43.3622 26.2953 43.1082 26.3401 42.8602C26.385 42.6088 26.385 42.3515 26.3401 42.1002C26.2201 41.5402 26.2299 40.8701 26.1399 40.3001C26.28 39.9865 26.3219 39.6379 26.26 39.3001C26.26 39.1901 26.26 39.0901 26.26 39.0001C26.2612 38.9768 26.2672 38.9541 26.2776 38.9333C26.288 38.9124 26.3025 38.8938 26.3203 38.8788C26.3381 38.8638 26.3588 38.8527 26.3811 38.846C26.4034 38.8393 26.4268 38.8374 26.45 38.8401C26.6296 38.8253 26.8103 38.8253 26.99 38.8401C27.3265 38.8602 27.6609 38.907 27.99 38.9802L28.49 38.8001C28.5689 38.8964 28.6754 38.9661 28.7952 39.0001C28.9149 39.034 29.0422 39.0305 29.1599 38.99C30.0193 38.8161 30.9025 38.7925 31.77 38.9201L32.1599 38.7101L32.6301 38.9001C33.0383 38.8448 33.452 38.8448 33.8601 38.9001C33.9798 38.9123 34.1003 38.9123 34.22 38.9001C34.39 38.9001 34.58 38.9001 34.72 38.9001C34.8925 38.8463 35.0774 38.8463 35.25 38.9001H35.48H35.24C35.3 38.7901 35.5401 38.7601 35.8301 38.7501C36.2901 38.7501 36.83 38.7501 37.2 38.6501C37.6318 38.6404 38.0627 38.6037 38.49 38.5401C38.7359 38.5127 38.9841 38.5127 39.23 38.5401C39.8862 38.395 40.5587 38.3378 41.23 38.3701L42.1499 38.6601H42.3501H43.3501L43.3999 38.8401Z" fill="white"/>
<path d="M26.21 39.6901C26.15 39.8601 26.1 40.0601 26.04 40.2001V40.13C26.04 40.03 26.0401 39.8201 26.1001 39.7101C26.1243 39.6266 26.1577 39.5461 26.2 39.4701L26.21 39.6901Z" fill="white"/>
<path d="M43.8401 38.68L43.9399 38.62C43.9897 38.613 44.0403 38.613 44.0901 38.62C44.0901 38.62 44.0901 38.62 44.0901 38.67L43.8401 38.68Z" fill="white"/>
<path d="M43.41 38.84L43.5 38.79L43.58 38.82L43.4 38.84H43.41Z" fill="white"/>
<path d="M53 39.66H53.0801H52.99C52.99 39.66 53.01 39.67 53 39.66Z" fill="white"/>
<path d="M42.1699 38.82L42.3199 38.77L42.3799 38.82H42.3899H42.1599H42.1699Z" fill="white"/>
<path d="M38.8301 37.96L38.8801 37.97L38.8101 37.98L38.8301 37.96Z" fill="white"/>
<path d="M47.99 39.68L48.19 39.75H48.2L48 39.67L47.99 39.68Z" fill="white"/>
<path d="M50.46 39.65H50.27H50.26L50.48 39.66L50.46 39.65Z" fill="white"/>
<path d="M50.69 39.59L50.46 39.65L50.48 39.66L50.7 39.59H50.69Z" fill="white"/>
<path d="M48.62 45.86L48.84 45.87V45.86H48.61H48.62Z" fill="white"/>
<path d="M44.98 27.46H38.03C37.9527 27.46 37.89 27.5226 37.89 27.6V57.57C37.89 57.6473 37.9527 57.71 38.03 57.71H44.98C45.0573 57.71 45.12 57.6473 45.12 57.57V27.6C45.12 27.5226 45.0573 27.46 44.98 27.46Z" fill="white"/>
<path d="M37.77 40.7001C37.8256 40.3389 37.8256 39.9713 37.77 39.6101C37.77 39.1201 37.7699 38.6101 37.7099 38.0901L37.6398 35.0901C37.6398 34.9201 37.6398 34.7501 37.6398 34.5901C37.7252 34.03 37.7252 33.4601 37.6398 32.9C37.6299 32.8036 37.6299 32.7065 37.6398 32.6101C37.7698 31.3901 37.6398 30.17 37.6398 28.94V27.8C37.6398 27.59 37.64 27.4 37.77 27.24C37.9471 27.1652 38.1378 27.1278 38.33 27.13H39.04C39.2023 27.1196 39.3631 27.0928 39.52 27.05C39.6461 27.0331 39.7737 27.0331 39.8998 27.05C40.7898 27.05 41.5299 27.05 42.2299 27.05H43.2299H44.3998C44.6817 27.0149 44.9678 27.0387 45.2399 27.12C45.3026 27.136 45.36 27.1686 45.4057 27.2143C45.4515 27.2601 45.484 27.3173 45.4999 27.38C45.5438 27.5064 45.5741 27.6372 45.59 27.77V29.28L45.6398 32.54C45.6398 33.39 45.6398 34.2401 45.6398 35.0901C45.6398 36.4201 45.6399 37.7601 45.7099 39.0901C45.7799 40.4201 45.81 41.56 45.82 42.8V45.13V46.66C45.82 47.89 45.89 49.1301 45.82 50.3401C45.7663 51.7838 45.7929 53.2293 45.8998 54.67C45.8998 54.93 45.8999 55.2101 45.9599 55.4501C46.1076 56.078 46.0371 56.7375 45.76 57.3201C45.58 57.5901 45.3899 57.77 45.1799 57.52C44.9699 57.27 44.8601 57.0201 44.8701 56.1001C44.8801 55.1801 44.8101 54.55 44.8701 53.76C44.8642 53.5203 44.8306 53.2821 44.77 53.05C44.77 52.05 44.7699 51.05 44.6899 50.05C44.6703 49.6903 44.6703 49.3298 44.6899 48.9701C44.6899 48.5001 44.6899 48.02 44.6899 47.55C44.6899 46.37 44.6901 45.18 44.6101 44C44.6101 43.67 44.6101 43.27 44.6101 42.9C44.6751 41.821 44.6751 40.739 44.6101 39.66C44.7401 38.66 44.6099 37.66 44.6899 36.66C44.7094 36.2969 44.7094 35.9331 44.6899 35.5701V35.3401C44.6899 34.7501 44.6401 34.1401 44.6101 33.5701C44.6101 32.8401 44.6101 32.1001 44.6101 31.3601C44.6101 30.8401 44.5601 30.36 44.6101 29.8C44.6292 29.5571 44.6292 29.313 44.6101 29.0701C44.5919 28.8651 44.5618 28.6615 44.52 28.4601C44.5816 28.347 44.6095 28.2185 44.6 28.0901C44.49 28.0301 44.3399 28.0901 44.2299 28.0901H41.6201H38.7199C38.6335 28.0799 38.5463 28.0799 38.4599 28.0901C38.4599 28.1601 38.4599 28.2701 38.4599 28.3501V28.62V29.15C38.4982 29.3982 38.5183 29.6489 38.52 29.9C38.4646 30.8992 38.4646 31.9008 38.52 32.9V33.51C38.47 33.75 38.52 33.8801 38.59 33.9501C38.59 34.1401 38.59 34.33 38.59 34.52C38.5455 34.7796 38.5876 35.0467 38.7099 35.28C38.7099 35.64 38.5699 35.8601 38.6599 36.2201C38.6599 36.8501 38.6599 37.5001 38.6599 38.1101C38.6341 39.0744 38.6642 40.0392 38.7499 41C38.8153 41.2694 38.8153 41.5506 38.7499 41.8201C38.7499 41.8901 38.8099 42.28 38.7499 42.39C38.7233 42.5657 38.7233 42.7444 38.7499 42.92C38.7499 43.85 38.7499 44.7901 38.7499 45.7201C38.7499 46.0501 38.7499 46.4201 38.7499 46.7201C38.855 47.3256 38.855 47.9446 38.7499 48.55C38.6957 48.9382 38.6957 49.332 38.7499 49.7201C38.8752 50.3439 38.8752 50.9863 38.7499 51.6101C38.7278 51.8462 38.7278 52.0839 38.7499 52.3201L38.6999 52.42L38.7499 52.31L38.8 55.63C38.8 56.02 38.8 56.45 38.8 56.8C38.8 56.8 38.8 56.87 38.85 56.88C38.85 56.88 38.8498 56.88 38.8998 56.88H39.1899C40.1899 56.88 41.1 56.74 42.09 56.78C42.7229 56.815 43.3571 56.815 43.9899 56.78C44.2058 56.7514 44.4255 56.7755 44.6301 56.8501C44.7057 56.874 44.7793 56.9041 44.85 56.94H44.8998V57.63V57.3401H44.79L43.9199 57.62L42.52 57.7101C42.2753 57.755 42.0246 57.755 41.78 57.7101C41.5253 57.6652 41.2647 57.6652 41.01 57.7101C40.45 57.8301 39.7799 57.82 39.2099 57.91C38.8963 57.7699 38.5477 57.7281 38.2099 57.79H37.9099C37.8866 57.7888 37.8638 57.7828 37.843 57.7724C37.8221 57.7621 37.8038 57.7475 37.7888 57.7297C37.7738 57.7119 37.7625 57.6912 37.7558 57.6689C37.7491 57.6466 37.7472 57.6232 37.7499 57.6001C37.74 57.4202 37.74 57.2399 37.7499 57.06C37.7749 56.724 37.8215 56.39 37.8898 56.06L37.7199 55.56C37.8144 55.4799 37.8823 55.3729 37.9145 55.2532C37.9467 55.1335 37.9415 55.0067 37.8998 54.89C37.7261 54.0306 37.7026 53.1475 37.83 52.28L37.6301 51.89C37.6901 51.73 37.75 51.59 37.81 51.42C37.7696 51.0093 37.7899 50.5949 37.8701 50.19C37.8812 50.0703 37.8812 49.9498 37.8701 49.8301C37.8701 49.6601 37.8701 49.4701 37.8701 49.3301C37.8162 49.1575 37.8162 48.9726 37.8701 48.8L37.9199 48.56L37.8701 48.81C37.7701 48.75 37.7399 48.5101 37.7199 48.2201C37.7199 47.7601 37.7201 47.2201 37.6201 46.8501C37.6204 46.4177 37.5834 45.9861 37.51 45.56C37.4928 45.3137 37.4928 45.0664 37.51 44.8201C37.3649 44.1639 37.3078 43.4913 37.34 42.8201C37.44 42.5201 37.5401 42.21 37.6301 41.9V41.69V40.69L37.77 40.7001Z" fill="white"/>
<path d="M38.6301 57.89C38.7901 57.95 38.9901 58.0001 39.1301 58.0601H39.0601C38.9202 58.0693 38.7797 58.0693 38.6399 58.0601C38.5564 58.0359 38.4759 58.0024 38.3999 57.9601L38.6301 57.89Z" fill="white"/>
<path d="M37.6102 40.3L37.5501 40.2001C37.5432 40.147 37.5432 40.0931 37.5501 40.04C37.5501 40.04 37.5502 40.04 37.6002 40.04L37.6102 40.3Z" fill="white"/>
<path d="M37.69 55.9801C37.6857 55.9536 37.6857 55.9265 37.69 55.9V55.9701V55.9801Z" fill="white"/>
<path d="M36.9098 34.38V34.4601V34.3601C36.9096 34.3668 36.9096 34.3733 36.9098 34.38Z" fill="white"/>
<path d="M37.77 40.69L37.71 40.59L37.74 40.51L37.77 40.7V40.69Z" fill="white"/>
<path d="M38.5901 31.1001V31.02V31.1001C38.6001 31.0901 38.5901 31.1001 38.5901 31.1001Z" fill="white"/>
<path d="M37.75 41.92L37.7 41.77L37.75 41.72V41.71L37.74 41.94L37.75 41.92Z" fill="white"/>
<path d="M36.89 45.27L36.9 45.22L36.91 45.28L36.89 45.27Z" fill="white"/>
<path d="M38.61 36.1L38.68 35.9V35.89L38.6 36.09L38.61 36.1Z" fill="white"/>
<path d="M38.5801 33.63V33.83L38.5901 33.62L38.5801 33.63Z" fill="white"/>
<path d="M38.52 33.4L38.58 33.63L38.59 33.62L38.52 33.39V33.4Z" fill="white"/>
</svg>
