<svg width="85" height="85" viewBox="0 0 85 85" fill="none" xmlns="http://www.w3.org/2000/svg">
<path d="M73.0521 37.386C75.2573 35.032 76.382 31.7138 75.7783 28.2896C74.7606 22.5179 69.2632 18.6687 63.4916 19.6864C57.72 20.704 53.8707 26.2014 54.8884 31.973C55.0137 32.6837 55.2125 33.3703 55.4613 34.0259L27.8953 38.8865C27.9157 38.1835 27.8569 37.4722 27.7316 36.7615C26.7139 30.9899 21.2166 27.1406 15.4449 28.1583C9.6733 29.176 5.82403 34.6733 6.84172 40.4449C7.4455 43.8691 9.62653 46.6044 12.5146 48.0604C10.3094 50.4144 9.1847 53.7326 9.78848 57.1568C10.8062 62.9285 16.3035 66.7777 22.0751 65.76C27.8468 64.7423 31.696 59.245 30.6783 53.4734C30.553 52.7627 30.3542 52.0761 30.1054 51.4205L57.6714 46.5598C57.651 47.2629 57.7099 47.9742 57.8352 48.6849C58.8529 54.4565 64.3502 58.3058 70.1218 57.2881C75.8934 56.2704 79.7427 50.7731 78.725 45.0015C78.1105 41.5791 75.9294 38.8438 73.0521 37.386Z" fill="#2D2D2D"/>
</svg>
